nColumns=19
nRows=97
DataType=double
version=3
OpenSimVersion=4.1
endheader
time	ground_force_calcn_r_vx	ground_force_calcn_r_vy	ground_force_calcn_r_vz	ground_force_calcn_r_px	ground_force_calcn_r_py	ground_force_calcn_r_pz	ground_force_calcn_r_mx	ground_force_calcn_r_my	ground_force_calcn_r_mz	ground_force_calcn_l_vx	ground_force_calcn_l_vy	ground_force_calcn_l_vz	ground_force_calcn_l_px	ground_force_calcn_l_py	ground_force_calcn_l_pz	ground_force_calcn_l_mx	ground_force_calcn_l_my	ground_force_calcn_l_mz
0.775	0	0	0	0	0	0	0	0	0	0	0	0	0	0	0	0	0	0
0.783333	-7.90714	22.8189	-0.984229	0.949581	0	-0.125508	1.2486	-3.6033	0.155418	0	0	0	0	0	0	0	0	0
0.791667	-10.8056	55.3009	-3.53876	0.945046	0	-0.200962	0.646926	-3.31084	0.211864	0	0	0	0	0	0	0	0	0
0.8	-8.27005	127.182	-7.39089	0.941388	0	-0.230782	-0.0480755	0.739335	-0.0429648	0	0	0	0	0	0	0	0	0
0.808333	0.782272	262.638	-11.0202	0.933447	0	-0.2412	0.0204733	6.87365	-0.288415	0	0	0	0	0	0	0	0	0
0.816667	8.87958	468.111	-10.9542	0.925978	0	-0.248023	0.193873	10.2205	-0.239169	0	0	0	0	0	0	0	0	0
0.825	4.07069	706.923	-3.9935	0.922139	0	-0.252903	0.0388013	6.73831	-0.0380655	0	0	0	0	0	0	0	0	0
0.833333	-20.0574	911.904	8.74207	0.921642	0	-0.255439	0.0491009	-2.23236	-0.0214008	0	0	0	0	0	0	0	0	0
0.841667	-58.8095	1049.23	20.5437	0.92221	0	-0.256352	0.551391	-9.83747	-0.192615	0	0	0	0	0	0	0	0	0
0.85	-98.6737	1145.54	24.3095	0.920668	0	-0.257225	0.858537	-9.96711	-0.211511	0	0	0	0	0	0	0	0	0
0.858333	-125.531	1240.93	19.6729	0.915493	0	-0.258702	0.358399	-3.54294	-0.0561675	0	0	0	0	0	0	0	0	0
0.866667	-135.427	1348.87	12.94	0.90769	0	-0.259481	-0.285153	2.84015	0.0272463	0	0	0	0	0	0	0	0	0
0.875	-133.71	1456.97	9.26637	0.898687	0	-0.258789	-0.393635	4.28924	0.0272797	0	0	0	0	0	0	0	0	0
0.883333	-123.259	1546.65	7.32829	0.888868	0	-0.257559	-0.178786	2.24339	0.0106296	0	0	0	0	0	0	0	0	0
0.891667	-105.901	1606.65	3.18045	0.878297	0	-0.256834	-0.0789299	1.19746	0.00237044	0	0	0	0	0	0	0	0	0
0.9	-87.0118	1635.07	-3.15801	0.867663	0	-0.256518	-0.137053	2.57542	-0.00497421	0	0	0	0	0	0	0	0	0
0.908333	-70.095	1637.25	-7.94528	0.857322	0	-0.25588	-0.167655	3.91603	-0.0190038	0	0	0	0	0	0	0	0	0
0.916667	-54.3355	1619.26	-9.46349	0.847049	0	-0.254703	-0.111971	3.33686	-0.0195017	0	0	0	0	0	0	0	0	0
0.925	-37.5147	1582.86	-10.1301	0.836572	0	-0.253509	-0.0512608	2.16284	-0.0138419	0	0	0	0	0	0	0	0	0
0.933333	-20.1664	1527.44	-12.2363	0.825892	0	-0.252827	-0.0313366	2.37349	-0.019014	0	0	0	0	0	0	0	0	0
0.941667	-4.78015	1455.83	-14.2496	0.815307	0	-0.252519	-0.0111089	3.38329	-0.0331157	0	0	0	0	0	0	0	0	0
0.95	9.10079	1374.88	-13.033	0.804946	0	-0.252078	0.0196711	2.97177	-0.0281706	0	0	0	0	0	0	0	0	0
0.958333	23.9117	1289.54	-8.16743	0.794486	0	-0.251512	0.0106663	0.575227	-0.00364326	0	0	0	0	0	0	0	0	0
0.966667	41.2348	1200.58	-2.07438	0.783365	0	-0.25138	-0.0688556	-2.00478	0.00346389	0	0	0	0	0	0	0	0	0
0.975	59.7344	1107.15	3.50202	0.771464	0	-0.251946	-0.169991	-3.15072	-0.00996599	0	0	0	0	0	0	0	0	0
0.983333	76.4848	1010.02	9.19019	0.759201	0	-0.252836	-0.252108	-3.32922	-0.0302926	0	0	0	0	0	0	0	0	0
0.991667	89.5173	911.923	15.9873	0.747006	0	-0.253609	-0.386543	-3.93776	-0.0690345	0	0	0	0	0	0	0	0	0
1	98.0848	814.325	23.0974	0.734904	0	-0.254278	-0.626916	-5.20482	-0.147629	0	0	0	0	0	0	0	0	0
1.00833	102.339	717.193	28.625	0.722619	0	-0.255067	-0.868449	-6.08613	-0.242913	0	0	0	0	0	0	0	0	0
1.01667	102.58	622.29	31.6657	0.710163	0	-0.255834	-0.965846	-5.85919	-0.298149	0	0	0	0	0	0	0	0	0
1.025	99.0681	533.049	32.8075	0.69778	0	-0.255947	-0.925131	-4.97779	-0.306367	0	0	0	0	0	0	0	0	0
1.03333	92.0707	451.17	32.7948	0.686157	0	-0.25503	-0.871941	-4.27273	-0.310578	0	0	0	0	0	0	0	0	0
1.04167	81.783	376.02	31.5286	0.67627	0	-0.253362	-0.853248	-3.92304	-0.32894	0	0	0	0	0	0	0	0	0
1.05	69.2223	306.538	28.6005	0.668195	0	-0.251198	-0.795248	-3.52161	-0.328572	0	0	0	0	0	0	0	0	0
1.05833	56.2114	243.148	24.2369	0.661046	0	-0.248101	-0.64955	-2.80969	-0.280069	0	0	0	0	0	0	0	0	0
1.06667	44.9297	188.046	19.2743	0.653666	0	-0.243193	-0.470546	-1.9694	-0.201859	0	0	0	0	0	0	0	0	0
1.075	36.3223	142.4	14.4452	0.645511	0	-0.236206	-0.331366	-1.2991	-0.131783	0	0	0	0	0	0	0	0	0
1.08333	29.4261	104.958	10.0961	0.637304	0	-0.227609	-0.255924	-0.912842	-0.0878079	0	0	0	0	0	0	0	0	0
1.09167	23.1133	74.6339	6.49357	0.632769	0	-0.217273	-0.245444	-0.79255	-0.0689564	0	0	0	0	0	0	0	0	0
1.1	17.3286	51.6977	3.93243	0.63676	0	-0.204825	-0.302462	-0.902356	-0.0686386	0	0	0	0	0	0	0	0	0
1.10833	12.8593	35.8582	2.42625	0.648018	0	-0.191597	-0.411644	-1.14787	-0.0776676	0	0	0	0	0	0	0	0	0
1.11667	9.63422	24.8543	1.6135	0.663935	0	-0.181859	-0.533647	-1.3767	-0.0893732	0	0	0	0	0	0	0	0	0
1.125	6.54651	16.1677	1.15071	0.692111	0	-0.179645	-0.626888	-1.5482	-0.110191	0	0	0	0	0	0	0	0	0
1.13333	0	0	0	0	0	0	0	0	0	0	0	0	0	0	0	0	0	0
1.14167	0	0	0	0	0	0	0	0	0	0	0	0	0	0	0	0	0	0
1.15	0	0	0	0	0	0	0	0	0	0	0	0	0	0	0	0	0	0
1.15833	0	0	0	0	0	0	0	0	0	0	0	0	0	0	0	0	0	0
1.16667	0	0	0	0	0	0	0	0	0	0	0	0	0	0	0	0	0	0
1.175	0	0	0	0	0	0	0	0	0	-7.36366	18.758	-1.42944	0.986665	0	-0.211971	0.351983	-0.896631	0.0683271
1.18333	0	0	0	0	0	0	0	0	0	-15.1039	45.6985	-3.43347	0.969836	0	-0.254467	0.169225	-0.512008	0.0384688
1.19167	0	0	0	0	0	0	0	0	0	-19.4574	104.782	-5.89278	0.95568	0	-0.268886	0.108166	-0.582495	0.0327588
1.2	0	0	0	0	0	0	0	0	0	-14.0678	218.5	-8.91995	0.94364	0	-0.274873	0.0911352	-1.41551	0.0577861
1.20833	0	0	0	0	0	0	0	0	0	-3.20974	399.664	-12.209	0.934998	0	-0.2764	0.0243193	-3.02813	0.0925038
1.21667	0	0	0	0	0	0	0	0	0	-0.5987	620.33	-15.4249	0.930731	0	-0.275469	0.00418426	-4.33543	0.107803
1.225	0	0	0	0	0	0	0	0	0	-16.2604	816.475	-19.1171	0.929954	0	-0.273854	0.0648575	-3.25665	0.0762521
1.23333	0	0	0	0	0	0	0	0	0	-48.814	947.451	-24.0187	0.930363	0	-0.27319	-0.0572576	1.11134	-0.0281733
1.24167	0	0	0	0	0	0	0	0	0	-86.9676	1031.66	-28.3724	0.928975	0	-0.274387	-0.514465	6.10285	-0.167839
1.25	0	0	0	0	0	0	0	0	0	-118.356	1113.71	-27.4971	0.924414	0	-0.276028	-0.730415	6.87306	-0.169694
1.25833	0	0	0	0	0	0	0	0	0	-136.784	1218.76	-18.5513	0.917557	0	-0.276195	-0.166002	1.4791	-0.0225141
1.26667	0	0	0	0	0	0	0	0	0	-140.324	1338.01	-5.07872	0.908858	0	-0.275648	0.647209	-6.17123	0.0234244
1.275	0	0	0	0	0	0	0	0	0	-130.16	1444.63	5.99943	0.898482	0	-0.276229	0.890546	-9.88403	-0.0410476
1.28333	0	0	0	0	0	0	0	0	0	-112.39	1522.78	12.0585	0.887324	0	-0.278135	0.579361	-7.84984	-0.0621607
1.29167	0	0	0	0	0	0	0	0	0	-94.4404	1575.35	16.9134	0.876468	0	-0.280141	0.254404	-4.24369	-0.0455613
1.3	0	0	0	0	0	0	0	0	0	-78.5563	1608.73	24.6965	0.866179	0	-0.281366	0.18127	-3.71217	-0.0569876
1.30833	0	0	0	0	0	0	0	0	0	-62.3545	1622.49	34.2125	0.855787	0	-0.282191	0.23397	-6.088	-0.128374
1.31667	0	0	0	0	0	0	0	0	0	-44.967	1613.44	41.2063	0.844966	0	-0.283479	0.218968	-7.85669	-0.200656
1.325	0	0	0	0	0	0	0	0	0	-28.1315	1582.21	44.3454	0.834108	0	-0.285279	0.131037	-7.36997	-0.206562
1.33333	0	0	0	0	0	0	0	0	0	-13.6364	1533.34	46.0693	0.823733	0	-0.286857	0.0566768	-6.37302	-0.191477
1.34167	0	0	0	0	0	0	0	0	0	-1.77568	1470.79	47.8808	0.814019	0	-0.287747	0.0079256	-6.56477	-0.213712
1.35	0	0	0	0	0	0	0	0	0	9.37394	1394.9	47.7068	0.804525	0	-0.288318	-0.0464509	-6.9122	-0.236403
1.35833	0	0	0	0	0	0	0	0	0	22.0991	1305.88	43.0175	0.794544	0	-0.289079	-0.0927027	-5.47799	-0.180453
1.36667	0	0	0	0	0	0	0	0	0	37.3158	1208.92	34.6105	0.783867	0	-0.28974	-0.0781749	-2.53264	-0.0725075
1.375	0	0	0	0	0	0	0	0	0	54.2075	1110.59	25.5758	0.772826	0	-0.289539	-0.0120853	-0.247601	-0.00570202
1.38333	0	0	0	0	0	0	0	0	0	70.8786	1012.14	17.4297	0.761645	0	-0.288329	0.0223812	0.3196	0.00550375
1.39167	0	0	0	0	0	0	0	0	0	85.0362	911.21	9.12391	0.750438	0	-0.286734	0.0389437	0.417304	0.00417845
1.4	0	0	0	0	0	0	0	0	0	95.1168	807.594	-0.11529	0.739273	0	-0.285297	0.17218	1.4619	-0.000208698
1.40833	0	0	0	0	0	0	0	0	0	100.863	705.001	-8.65049	0.727983	0	-0.28392	0.418793	2.92722	-0.0359175
1.41667	0	0	0	0	0	0	0	0	0	102.432	608.148	-14.023	0.716482	0	-0.282315	0.542375	3.22013	-0.0742514
1.425	0	0	0	0	0	0	0	0	0	99.4698	518.689	-15.752	0.704983	0	-0.280676	0.381681	1.99029	-0.0604427
1.43333	0	0	0	0	0	0	0	0	0	91.7542	434.678	-15.4343	0.693865	0	-0.279521	0.10605	0.502404	-0.0178391
1.44167	0	0	0	0	0	0	0	0	0	80.4275	355.01	-14.3859	0.683522	0	-0.279076	-0.0427042	-0.188498	0.00763843
1.45	0	0	0	0	0	0	0	0	0	67.8745	282.12	-12.3283	0.674409	0	-0.278951	-0.11883	-0.493919	0.0215836
1.45833	0	0	0	0	0	0	0	0	0	56.1304	218.613	-8.66041	0.667339	0	-0.278665	-0.35198	-1.37086	0.0543072
1.46667	0	0	0	0	0	0	0	0	0	45.9462	164.556	-4.11798	0.662551	0	-0.2784	-0.767281	-2.74801	0.0687684
1.475	0	0	0	0	0	0	0	0	0	36.9424	118.855	-0.399262	0.659611	0	-0.278605	-1.1006	-3.54096	0.011895
1.48333	0	0	0	0	0	0	0	0	0	28.9188	81.438	1.59208	0.658455	0	-0.278038	-1.11206	-3.13166	-0.0612229
1.49167	0	0	0	0	0	0	0	0	0	21.9028	53.2718	2.43819	0.660882	0	-0.273292	-0.909951	-2.21317	-0.101294
1.5	0	0	0	0	0	0	0	0	0	15.7668	34.0965	3.11334	0.674274	0	-0.265119	-0.88236	-1.90815	-0.174232
1.50833	0	0	0	0	0	0	0	0	0	10.2077	21.5176	3.78492	0.716869	0	-0.266116	-1.18329	-2.49435	-0.438753
1.51667	0	0	0	0	0	0	0	0	0	5.26873	12.797	3.97158	-0.000890484	0	8.12871e-05	-2.65107e-20	-6.43909e-20	-1.99838e-20
1.525	0	0	0	0	0	0	0	0	0	0	0	0	0	0	0	0	0	0
1.53333	0	0	0	0	0	0	0	0	0	0	0	0	0	0	0	0	0	0
1.54167	0	0	0	0	0	0	0	0	0	0	0	0	0	0	0	0	0	0
1.55	0	0	0	0	0	0	0	0	0	0	0	0	0	0	0	0	0	0
1.55833	0	0	0	0	0	0	0	0	0	0	0	0	0	0	0	0	0	0
1.56667	0	0	0	0	0	0	0	0	0	0	0	0	0	0	0	0	0	0
1.575	0	0	0	0	0	0	0	0	0	0	0	0	0	0	0	0	0	0
